<mxfile host="Electron" agent="Mozilla/5.0 (Windows NT 10.0; Win64; x64) AppleWebKit/537.36 (KHTML, like Gecko) draw.io/24.7.17 Chrome/128.0.6613.36 Electron/32.0.1 Safari/537.36" version="24.7.17">
  <diagram name="Trang-1" id="75E3abRGYtrPw5y6bDKS">
    <mxGraphModel dx="901" dy="600" grid="0" gridSize="10" guides="1" tooltips="1" connect="1" arrows="1" fold="1" page="0" pageScale="1" pageWidth="850" pageHeight="1100" math="0" shadow="0">
      <root>
        <mxCell id="0" />
        <mxCell id="1" parent="0" />
        <mxCell id="H7oYHcy3-10RAJCXSZ3g-7" value="AspNetRoleClaims" style="swimlane;fillColor=#e1d5e7;strokeColor=#9673a6;fontFamily=Times New Roman;fontSize=14;align=center;fontColor=default;html=1;" parent="1" vertex="1">
          <mxGeometry x="505" y="450" width="140" height="110" as="geometry" />
        </mxCell>
        <mxCell id="H7oYHcy3-10RAJCXSZ3g-9" value="&lt;b&gt;Id&lt;/b&gt;" style="text;align=center;verticalAlign=middle;rounded=0;fontFamily=Times New Roman;fontSize=14;fontColor=default;html=1;" parent="H7oYHcy3-10RAJCXSZ3g-7" vertex="1">
          <mxGeometry x="40" y="25" width="60" height="25" as="geometry" />
        </mxCell>
        <mxCell id="H7oYHcy3-10RAJCXSZ3g-14" value="ClaimValue" style="text;align=center;verticalAlign=middle;rounded=0;fontFamily=Times New Roman;fontSize=14;fontColor=default;html=1;" parent="H7oYHcy3-10RAJCXSZ3g-7" vertex="1">
          <mxGeometry x="40" y="80" width="60" height="30" as="geometry" />
        </mxCell>
        <mxCell id="H7oYHcy3-10RAJCXSZ3g-11" value="ClaimType" style="text;align=center;verticalAlign=middle;rounded=0;fontFamily=Times New Roman;fontSize=14;fontColor=default;html=1;" parent="H7oYHcy3-10RAJCXSZ3g-7" vertex="1">
          <mxGeometry x="40" y="60" width="60" height="30" as="geometry" />
        </mxCell>
        <mxCell id="H7oYHcy3-10RAJCXSZ3g-10" value="RoleId" style="text;align=center;verticalAlign=middle;rounded=0;fontFamily=Times New Roman;fontSize=14;fontColor=default;html=1;" parent="H7oYHcy3-10RAJCXSZ3g-7" vertex="1">
          <mxGeometry x="40" y="40" width="60" height="30" as="geometry" />
        </mxCell>
        <mxCell id="H7oYHcy3-10RAJCXSZ3g-16" value="AspNetRoles" style="swimlane;fillColor=#e1d5e7;strokeColor=#9673a6;fontFamily=Times New Roman;fontSize=14;align=center;fontColor=default;html=1;" parent="1" vertex="1">
          <mxGeometry x="510" y="300" width="130" height="110" as="geometry" />
        </mxCell>
        <mxCell id="H7oYHcy3-10RAJCXSZ3g-17" value="&lt;b&gt;Id&lt;/b&gt;" style="text;align=center;verticalAlign=middle;rounded=0;fontFamily=Times New Roman;fontSize=14;fontColor=default;html=1;" parent="H7oYHcy3-10RAJCXSZ3g-16" vertex="1">
          <mxGeometry x="35" y="25" width="60" height="25" as="geometry" />
        </mxCell>
        <mxCell id="H7oYHcy3-10RAJCXSZ3g-18" value="ConcurrencyStamp" style="text;align=center;verticalAlign=middle;rounded=0;fontFamily=Times New Roman;fontSize=14;fontColor=default;html=1;" parent="H7oYHcy3-10RAJCXSZ3g-16" vertex="1">
          <mxGeometry x="35" y="80" width="60" height="30" as="geometry" />
        </mxCell>
        <mxCell id="H7oYHcy3-10RAJCXSZ3g-21" value="NormalizedName" style="text;align=center;verticalAlign=middle;rounded=0;fontFamily=Times New Roman;fontSize=14;fontColor=default;html=1;" parent="H7oYHcy3-10RAJCXSZ3g-16" vertex="1">
          <mxGeometry x="35" y="60" width="60" height="30" as="geometry" />
        </mxCell>
        <mxCell id="H7oYHcy3-10RAJCXSZ3g-22" value="Name" style="text;align=center;verticalAlign=middle;rounded=0;fontFamily=Times New Roman;fontSize=14;fontColor=default;html=1;" parent="H7oYHcy3-10RAJCXSZ3g-16" vertex="1">
          <mxGeometry x="35" y="40" width="60" height="30" as="geometry" />
        </mxCell>
        <mxCell id="H7oYHcy3-10RAJCXSZ3g-42" value="AspNetUsers" style="swimlane;fillColor=#e1d5e7;strokeColor=#9673a6;fontFamily=Times New Roman;fontSize=14;align=center;fontColor=default;html=1;" parent="1" vertex="1">
          <mxGeometry x="860" y="260" width="150" height="410" as="geometry" />
        </mxCell>
        <mxCell id="H7oYHcy3-10RAJCXSZ3g-43" value="&lt;b&gt;Id&lt;/b&gt;" style="text;align=center;verticalAlign=middle;rounded=0;fontFamily=Times New Roman;fontSize=14;fontColor=default;html=1;" parent="H7oYHcy3-10RAJCXSZ3g-42" vertex="1">
          <mxGeometry x="45" y="25" width="60" height="25" as="geometry" />
        </mxCell>
        <mxCell id="H7oYHcy3-10RAJCXSZ3g-44" value="DiaChi" style="text;align=center;verticalAlign=middle;rounded=0;fontFamily=Times New Roman;fontSize=14;fontColor=default;html=1;" parent="H7oYHcy3-10RAJCXSZ3g-42" vertex="1">
          <mxGeometry x="45" y="80" width="60" height="30" as="geometry" />
        </mxCell>
        <mxCell id="H7oYHcy3-10RAJCXSZ3g-45" value="TinhTrang" style="text;align=center;verticalAlign=middle;rounded=0;fontFamily=Times New Roman;fontSize=14;fontColor=default;html=1;" parent="H7oYHcy3-10RAJCXSZ3g-42" vertex="1">
          <mxGeometry x="45" y="100" width="60" height="30" as="geometry" />
        </mxCell>
        <mxCell id="H7oYHcy3-10RAJCXSZ3g-46" value="UserName" style="text;align=center;verticalAlign=middle;rounded=0;fontFamily=Times New Roman;fontSize=14;fontColor=default;html=1;" parent="H7oYHcy3-10RAJCXSZ3g-42" vertex="1">
          <mxGeometry x="45" y="120" width="60" height="30" as="geometry" />
        </mxCell>
        <mxCell id="H7oYHcy3-10RAJCXSZ3g-47" value="HinhAnh" style="text;align=center;verticalAlign=middle;rounded=0;fontFamily=Times New Roman;fontSize=14;fontColor=default;html=1;" parent="H7oYHcy3-10RAJCXSZ3g-42" vertex="1">
          <mxGeometry x="45" y="60" width="60" height="30" as="geometry" />
        </mxCell>
        <mxCell id="H7oYHcy3-10RAJCXSZ3g-48" value="HoTen" style="text;align=center;verticalAlign=middle;rounded=0;fontFamily=Times New Roman;fontSize=14;fontColor=default;html=1;" parent="H7oYHcy3-10RAJCXSZ3g-42" vertex="1">
          <mxGeometry x="45" y="40" width="60" height="30" as="geometry" />
        </mxCell>
        <mxCell id="H7oYHcy3-10RAJCXSZ3g-49" value="NormalizedUserName" style="text;align=center;verticalAlign=middle;rounded=0;fontFamily=Times New Roman;fontSize=14;fontColor=default;html=1;" parent="H7oYHcy3-10RAJCXSZ3g-42" vertex="1">
          <mxGeometry x="45" y="140" width="60" height="30" as="geometry" />
        </mxCell>
        <mxCell id="H7oYHcy3-10RAJCXSZ3g-50" value="Email" style="text;align=center;verticalAlign=middle;rounded=0;fontFamily=Times New Roman;fontSize=14;fontColor=default;html=1;" parent="H7oYHcy3-10RAJCXSZ3g-42" vertex="1">
          <mxGeometry x="45" y="160" width="60" height="30" as="geometry" />
        </mxCell>
        <mxCell id="H7oYHcy3-10RAJCXSZ3g-51" value="NormalizedEmail" style="text;align=center;verticalAlign=middle;rounded=0;fontFamily=Times New Roman;fontSize=14;fontColor=default;html=1;" parent="H7oYHcy3-10RAJCXSZ3g-42" vertex="1">
          <mxGeometry x="45" y="180" width="60" height="30" as="geometry" />
        </mxCell>
        <mxCell id="Ya3eAvGwwQpFYnClVD_1-1" value="EmailConfirmed" style="text;align=center;verticalAlign=middle;rounded=0;fontFamily=Times New Roman;fontSize=14;fontColor=default;html=1;" vertex="1" parent="H7oYHcy3-10RAJCXSZ3g-42">
          <mxGeometry x="45" y="200" width="60" height="30" as="geometry" />
        </mxCell>
        <mxCell id="Ya3eAvGwwQpFYnClVD_1-7" value="PasswordHash" style="text;align=center;verticalAlign=middle;rounded=0;fontFamily=Times New Roman;fontSize=14;fontColor=default;html=1;" vertex="1" parent="H7oYHcy3-10RAJCXSZ3g-42">
          <mxGeometry x="45" y="220" width="60" height="30" as="geometry" />
        </mxCell>
        <mxCell id="Ya3eAvGwwQpFYnClVD_1-8" value="SecurityStamp" style="text;align=center;verticalAlign=middle;rounded=0;fontFamily=Times New Roman;fontSize=14;fontColor=default;html=1;" vertex="1" parent="H7oYHcy3-10RAJCXSZ3g-42">
          <mxGeometry x="45" y="240" width="60" height="30" as="geometry" />
        </mxCell>
        <mxCell id="Ya3eAvGwwQpFYnClVD_1-9" value="ConcurrencyStamp" style="text;align=center;verticalAlign=middle;rounded=0;fontFamily=Times New Roman;fontSize=14;fontColor=default;html=1;" vertex="1" parent="H7oYHcy3-10RAJCXSZ3g-42">
          <mxGeometry x="45" y="260" width="60" height="30" as="geometry" />
        </mxCell>
        <mxCell id="Ya3eAvGwwQpFYnClVD_1-10" value="PhoneNumber" style="text;align=center;verticalAlign=middle;rounded=0;fontFamily=Times New Roman;fontSize=14;fontColor=default;html=1;" vertex="1" parent="H7oYHcy3-10RAJCXSZ3g-42">
          <mxGeometry x="45" y="280" width="60" height="30" as="geometry" />
        </mxCell>
        <mxCell id="Ya3eAvGwwQpFYnClVD_1-11" value="PhoneNumberConfirmed" style="text;align=center;verticalAlign=middle;rounded=0;fontFamily=Times New Roman;fontSize=14;fontColor=default;html=1;" vertex="1" parent="H7oYHcy3-10RAJCXSZ3g-42">
          <mxGeometry x="45" y="300" width="60" height="30" as="geometry" />
        </mxCell>
        <mxCell id="Ya3eAvGwwQpFYnClVD_1-12" value="TwoFactorEnabled" style="text;align=center;verticalAlign=middle;rounded=0;fontFamily=Times New Roman;fontSize=14;fontColor=default;html=1;" vertex="1" parent="H7oYHcy3-10RAJCXSZ3g-42">
          <mxGeometry x="45" y="320" width="60" height="30" as="geometry" />
        </mxCell>
        <mxCell id="Ya3eAvGwwQpFYnClVD_1-13" value="LockoutEnd" style="text;align=center;verticalAlign=middle;rounded=0;fontFamily=Times New Roman;fontSize=14;fontColor=default;html=1;" vertex="1" parent="H7oYHcy3-10RAJCXSZ3g-42">
          <mxGeometry x="45" y="340" width="60" height="30" as="geometry" />
        </mxCell>
        <mxCell id="Ya3eAvGwwQpFYnClVD_1-14" value="LockoutEnabled" style="text;align=center;verticalAlign=middle;rounded=0;fontFamily=Times New Roman;fontSize=14;fontColor=default;html=1;" vertex="1" parent="H7oYHcy3-10RAJCXSZ3g-42">
          <mxGeometry x="45" y="360" width="60" height="30" as="geometry" />
        </mxCell>
        <mxCell id="Ya3eAvGwwQpFYnClVD_1-15" value="AccessFailedCount" style="text;align=center;verticalAlign=middle;rounded=0;fontFamily=Times New Roman;fontSize=14;fontColor=default;html=1;" vertex="1" parent="H7oYHcy3-10RAJCXSZ3g-42">
          <mxGeometry x="45" y="380" width="60" height="30" as="geometry" />
        </mxCell>
        <mxCell id="H7oYHcy3-10RAJCXSZ3g-52" value="AspNetUserRole" style="swimlane;fillColor=#e1d5e7;strokeColor=#9673a6;fontFamily=Times New Roman;fontSize=14;align=center;fontColor=default;html=1;" parent="1" vertex="1">
          <mxGeometry x="690" y="300" width="130" height="70" as="geometry" />
        </mxCell>
        <mxCell id="H7oYHcy3-10RAJCXSZ3g-53" value="&lt;b&gt;UserId&lt;/b&gt;" style="text;align=center;verticalAlign=middle;rounded=0;fontFamily=Times New Roman;fontSize=14;fontColor=default;html=1;" parent="H7oYHcy3-10RAJCXSZ3g-52" vertex="1">
          <mxGeometry x="35" y="25" width="60" height="25" as="geometry" />
        </mxCell>
        <mxCell id="H7oYHcy3-10RAJCXSZ3g-58" value="RoleId" style="text;align=center;verticalAlign=middle;rounded=0;fontFamily=Times New Roman;fontSize=14;fontColor=default;html=1;" parent="H7oYHcy3-10RAJCXSZ3g-52" vertex="1">
          <mxGeometry x="35" y="40" width="60" height="30" as="geometry" />
        </mxCell>
        <mxCell id="H7oYHcy3-10RAJCXSZ3g-59" value="AspNetUserLogins" style="swimlane;fillColor=#e1d5e7;strokeColor=#9673a6;fontFamily=Times New Roman;fontSize=14;align=center;fontColor=default;html=1;" parent="1" vertex="1">
          <mxGeometry x="1060" y="300" width="140" height="110" as="geometry" />
        </mxCell>
        <mxCell id="H7oYHcy3-10RAJCXSZ3g-60" value="&lt;b&gt;LoginProvider&lt;/b&gt;" style="text;align=center;verticalAlign=middle;rounded=0;fontFamily=Times New Roman;fontSize=14;fontColor=default;html=1;" parent="H7oYHcy3-10RAJCXSZ3g-59" vertex="1">
          <mxGeometry x="40" y="25" width="60" height="25" as="geometry" />
        </mxCell>
        <mxCell id="H7oYHcy3-10RAJCXSZ3g-61" value="UserId" style="text;align=center;verticalAlign=middle;rounded=0;fontFamily=Times New Roman;fontSize=14;fontColor=default;html=1;" parent="H7oYHcy3-10RAJCXSZ3g-59" vertex="1">
          <mxGeometry x="40" y="80" width="60" height="30" as="geometry" />
        </mxCell>
        <mxCell id="H7oYHcy3-10RAJCXSZ3g-64" value="ProviderDisplayName" style="text;align=center;verticalAlign=middle;rounded=0;fontFamily=Times New Roman;fontSize=14;fontColor=default;html=1;" parent="H7oYHcy3-10RAJCXSZ3g-59" vertex="1">
          <mxGeometry x="40" y="60" width="60" height="30" as="geometry" />
        </mxCell>
        <mxCell id="H7oYHcy3-10RAJCXSZ3g-65" value="ProviderKey" style="text;align=center;verticalAlign=middle;rounded=0;fontFamily=Times New Roman;fontSize=14;fontColor=default;html=1;" parent="H7oYHcy3-10RAJCXSZ3g-59" vertex="1">
          <mxGeometry x="40" y="40" width="60" height="30" as="geometry" />
        </mxCell>
        <mxCell id="H7oYHcy3-10RAJCXSZ3g-66" value="AspNetUserTokens" style="swimlane;fillColor=#e1d5e7;strokeColor=#9673a6;fontFamily=Times New Roman;fontSize=14;align=center;fontColor=default;html=1;" parent="1" vertex="1">
          <mxGeometry x="864.5" y="100" width="141" height="110" as="geometry" />
        </mxCell>
        <mxCell id="H7oYHcy3-10RAJCXSZ3g-67" value="&lt;b&gt;UserId&lt;/b&gt;" style="text;align=center;verticalAlign=middle;rounded=0;fontFamily=Times New Roman;fontSize=14;fontColor=default;html=1;" parent="H7oYHcy3-10RAJCXSZ3g-66" vertex="1">
          <mxGeometry x="40" y="25" width="60" height="25" as="geometry" />
        </mxCell>
        <mxCell id="H7oYHcy3-10RAJCXSZ3g-68" value="Value" style="text;align=center;verticalAlign=middle;rounded=0;fontFamily=Times New Roman;fontSize=14;fontColor=default;html=1;" parent="H7oYHcy3-10RAJCXSZ3g-66" vertex="1">
          <mxGeometry x="40" y="80" width="60" height="30" as="geometry" />
        </mxCell>
        <mxCell id="H7oYHcy3-10RAJCXSZ3g-71" value="Name" style="text;align=center;verticalAlign=middle;rounded=0;fontFamily=Times New Roman;fontSize=14;fontColor=default;html=1;" parent="H7oYHcy3-10RAJCXSZ3g-66" vertex="1">
          <mxGeometry x="40" y="60" width="60" height="30" as="geometry" />
        </mxCell>
        <mxCell id="H7oYHcy3-10RAJCXSZ3g-72" value="LoginProvider" style="text;align=center;verticalAlign=middle;rounded=0;fontFamily=Times New Roman;fontSize=14;fontColor=default;html=1;" parent="H7oYHcy3-10RAJCXSZ3g-66" vertex="1">
          <mxGeometry x="40" y="40" width="60" height="30" as="geometry" />
        </mxCell>
        <mxCell id="Ya3eAvGwwQpFYnClVD_1-16" value="SanPhamYeuThich" style="swimlane;fillColor=#e1d5e7;strokeColor=#9673a6;fontFamily=Times New Roman;fontSize=14;align=center;fontColor=default;html=1;" vertex="1" parent="1">
          <mxGeometry x="860" y="720" width="150" height="90" as="geometry" />
        </mxCell>
        <mxCell id="Ya3eAvGwwQpFYnClVD_1-17" value="&lt;b&gt;MaYeuThich&lt;/b&gt;" style="text;align=center;verticalAlign=middle;rounded=0;fontFamily=Times New Roman;fontSize=14;fontColor=default;html=1;" vertex="1" parent="Ya3eAvGwwQpFYnClVD_1-16">
          <mxGeometry x="45" y="22.5" width="60" height="25" as="geometry" />
        </mxCell>
        <mxCell id="Ya3eAvGwwQpFYnClVD_1-18" value="UserId" style="text;align=center;verticalAlign=middle;rounded=0;fontFamily=Times New Roman;fontSize=14;fontColor=default;html=1;" vertex="1" parent="Ya3eAvGwwQpFYnClVD_1-16">
          <mxGeometry x="45" y="40" width="60" height="30" as="geometry" />
        </mxCell>
        <mxCell id="Ya3eAvGwwQpFYnClVD_1-19" value="MaSanPham" style="text;align=center;verticalAlign=middle;rounded=0;fontFamily=Times New Roman;fontSize=14;fontColor=default;html=1;" vertex="1" parent="Ya3eAvGwwQpFYnClVD_1-16">
          <mxGeometry x="45" y="60" width="60" height="30" as="geometry" />
        </mxCell>
        <mxCell id="Ya3eAvGwwQpFYnClVD_1-20" value="ChiTietDonHang" style="swimlane;fillColor=#e1d5e7;strokeColor=#9673a6;fontFamily=Times New Roman;fontSize=14;align=center;fontColor=default;html=1;" vertex="1" parent="1">
          <mxGeometry x="660" y="720" width="150" height="230" as="geometry" />
        </mxCell>
        <mxCell id="Ya3eAvGwwQpFYnClVD_1-21" value="&lt;b&gt;MaChiTiet&lt;/b&gt;" style="text;align=center;verticalAlign=middle;rounded=0;fontFamily=Times New Roman;fontSize=14;fontColor=default;html=1;" vertex="1" parent="Ya3eAvGwwQpFYnClVD_1-20">
          <mxGeometry x="45" y="22.5" width="60" height="25" as="geometry" />
        </mxCell>
        <mxCell id="Ya3eAvGwwQpFYnClVD_1-22" value="MaDonHang" style="text;align=center;verticalAlign=middle;rounded=0;fontFamily=Times New Roman;fontSize=14;fontColor=default;html=1;" vertex="1" parent="Ya3eAvGwwQpFYnClVD_1-20">
          <mxGeometry x="45" y="40" width="60" height="30" as="geometry" />
        </mxCell>
        <mxCell id="Ya3eAvGwwQpFYnClVD_1-23" value="MaSanPham" style="text;align=center;verticalAlign=middle;rounded=0;fontFamily=Times New Roman;fontSize=14;fontColor=default;html=1;" vertex="1" parent="Ya3eAvGwwQpFYnClVD_1-20">
          <mxGeometry x="45" y="60" width="60" height="30" as="geometry" />
        </mxCell>
        <mxCell id="Ya3eAvGwwQpFYnClVD_1-24" value="SoLuong" style="text;align=center;verticalAlign=middle;rounded=0;fontFamily=Times New Roman;fontSize=14;fontColor=default;html=1;" vertex="1" parent="Ya3eAvGwwQpFYnClVD_1-20">
          <mxGeometry x="45" y="80" width="60" height="30" as="geometry" />
        </mxCell>
        <mxCell id="Ya3eAvGwwQpFYnClVD_1-25" value="Gia" style="text;align=center;verticalAlign=middle;rounded=0;fontFamily=Times New Roman;fontSize=14;fontColor=default;html=1;" vertex="1" parent="Ya3eAvGwwQpFYnClVD_1-20">
          <mxGeometry x="45" y="100" width="60" height="30" as="geometry" />
        </mxCell>
        <mxCell id="Ya3eAvGwwQpFYnClVD_1-26" value="NgayGiao" style="text;align=center;verticalAlign=middle;rounded=0;fontFamily=Times New Roman;fontSize=14;fontColor=default;html=1;" vertex="1" parent="Ya3eAvGwwQpFYnClVD_1-20">
          <mxGeometry x="45" y="120" width="60" height="30" as="geometry" />
        </mxCell>
        <mxCell id="Ya3eAvGwwQpFYnClVD_1-27" value="NgayNhan" style="text;align=center;verticalAlign=middle;rounded=0;fontFamily=Times New Roman;fontSize=14;fontColor=default;html=1;" vertex="1" parent="Ya3eAvGwwQpFYnClVD_1-20">
          <mxGeometry x="45" y="140" width="60" height="30" as="geometry" />
        </mxCell>
        <mxCell id="Ya3eAvGwwQpFYnClVD_1-28" value="NgayThanhToan" style="text;align=center;verticalAlign=middle;rounded=0;fontFamily=Times New Roman;fontSize=14;fontColor=default;html=1;" vertex="1" parent="Ya3eAvGwwQpFYnClVD_1-20">
          <mxGeometry x="45" y="160" width="60" height="30" as="geometry" />
        </mxCell>
        <mxCell id="Ya3eAvGwwQpFYnClVD_1-29" value="TrangThai" style="text;align=center;verticalAlign=middle;rounded=0;fontFamily=Times New Roman;fontSize=14;fontColor=default;html=1;" vertex="1" parent="Ya3eAvGwwQpFYnClVD_1-20">
          <mxGeometry x="45" y="180" width="60" height="30" as="geometry" />
        </mxCell>
        <mxCell id="Ya3eAvGwwQpFYnClVD_1-30" value="UserId" style="text;align=center;verticalAlign=middle;rounded=0;fontFamily=Times New Roman;fontSize=14;fontColor=default;html=1;" vertex="1" parent="Ya3eAvGwwQpFYnClVD_1-20">
          <mxGeometry x="45" y="200" width="60" height="30" as="geometry" />
        </mxCell>
        <mxCell id="Ya3eAvGwwQpFYnClVD_1-31" value="ThanhToan" style="swimlane;fillColor=#e1d5e7;strokeColor=#9673a6;fontFamily=Times New Roman;fontSize=14;align=center;fontColor=default;html=1;" vertex="1" parent="1">
          <mxGeometry x="450" y="900" width="150" height="130" as="geometry" />
        </mxCell>
        <mxCell id="Ya3eAvGwwQpFYnClVD_1-32" value="&lt;b&gt;MaDonHang&lt;/b&gt;" style="text;align=center;verticalAlign=middle;rounded=0;fontFamily=Times New Roman;fontSize=14;fontColor=default;html=1;" vertex="1" parent="Ya3eAvGwwQpFYnClVD_1-31">
          <mxGeometry x="45" y="22.5" width="60" height="25" as="geometry" />
        </mxCell>
        <mxCell id="Ya3eAvGwwQpFYnClVD_1-33" value="SoTien" style="text;align=center;verticalAlign=middle;rounded=0;fontFamily=Times New Roman;fontSize=14;fontColor=default;html=1;" vertex="1" parent="Ya3eAvGwwQpFYnClVD_1-31">
          <mxGeometry x="45" y="40" width="60" height="30" as="geometry" />
        </mxCell>
        <mxCell id="Ya3eAvGwwQpFYnClVD_1-34" value="PhuongThuc" style="text;align=center;verticalAlign=middle;rounded=0;fontFamily=Times New Roman;fontSize=14;fontColor=default;html=1;" vertex="1" parent="Ya3eAvGwwQpFYnClVD_1-31">
          <mxGeometry x="45" y="60" width="60" height="30" as="geometry" />
        </mxCell>
        <mxCell id="Ya3eAvGwwQpFYnClVD_1-35" value="TrangThai" style="text;align=center;verticalAlign=middle;rounded=0;fontFamily=Times New Roman;fontSize=14;fontColor=default;html=1;" vertex="1" parent="Ya3eAvGwwQpFYnClVD_1-31">
          <mxGeometry x="45" y="80" width="60" height="30" as="geometry" />
        </mxCell>
        <mxCell id="Ya3eAvGwwQpFYnClVD_1-36" value="NgayThanhToan" style="text;align=center;verticalAlign=middle;rounded=0;fontFamily=Times New Roman;fontSize=14;fontColor=default;html=1;" vertex="1" parent="Ya3eAvGwwQpFYnClVD_1-31">
          <mxGeometry x="45" y="100" width="60" height="30" as="geometry" />
        </mxCell>
        <mxCell id="Ya3eAvGwwQpFYnClVD_1-42" value="DonDatHang" style="swimlane;fillColor=#e1d5e7;strokeColor=#9673a6;fontFamily=Times New Roman;fontSize=14;align=center;fontColor=default;html=1;" vertex="1" parent="1">
          <mxGeometry x="450" y="720" width="150" height="130" as="geometry" />
        </mxCell>
        <mxCell id="Ya3eAvGwwQpFYnClVD_1-43" value="&lt;b&gt;MaDonHang&lt;/b&gt;" style="text;align=center;verticalAlign=middle;rounded=0;fontFamily=Times New Roman;fontSize=14;fontColor=default;html=1;" vertex="1" parent="Ya3eAvGwwQpFYnClVD_1-42">
          <mxGeometry x="45" y="22.5" width="60" height="25" as="geometry" />
        </mxCell>
        <mxCell id="Ya3eAvGwwQpFYnClVD_1-44" value="UserId" style="text;align=center;verticalAlign=middle;rounded=0;fontFamily=Times New Roman;fontSize=14;fontColor=default;html=1;" vertex="1" parent="Ya3eAvGwwQpFYnClVD_1-42">
          <mxGeometry x="45" y="40" width="60" height="30" as="geometry" />
        </mxCell>
        <mxCell id="Ya3eAvGwwQpFYnClVD_1-45" value="NgayDat" style="text;align=center;verticalAlign=middle;rounded=0;fontFamily=Times New Roman;fontSize=14;fontColor=default;html=1;" vertex="1" parent="Ya3eAvGwwQpFYnClVD_1-42">
          <mxGeometry x="45" y="60" width="60" height="30" as="geometry" />
        </mxCell>
        <mxCell id="Ya3eAvGwwQpFYnClVD_1-46" value="TrangThai" style="text;align=center;verticalAlign=middle;rounded=0;fontFamily=Times New Roman;fontSize=14;fontColor=default;html=1;" vertex="1" parent="Ya3eAvGwwQpFYnClVD_1-42">
          <mxGeometry x="45" y="80" width="60" height="30" as="geometry" />
        </mxCell>
        <mxCell id="Ya3eAvGwwQpFYnClVD_1-47" value="TongTien" style="text;align=center;verticalAlign=middle;rounded=0;fontFamily=Times New Roman;fontSize=14;fontColor=default;html=1;" vertex="1" parent="Ya3eAvGwwQpFYnClVD_1-42">
          <mxGeometry x="45" y="100" width="60" height="30" as="geometry" />
        </mxCell>
        <mxCell id="Ya3eAvGwwQpFYnClVD_1-53" value="DanhMucSanPham" style="swimlane;fillColor=#e1d5e7;strokeColor=#9673a6;fontFamily=Times New Roman;fontSize=14;align=center;fontColor=default;html=1;" vertex="1" parent="1">
          <mxGeometry x="1070" y="880" width="150" height="70" as="geometry" />
        </mxCell>
        <mxCell id="Ya3eAvGwwQpFYnClVD_1-54" value="&lt;b&gt;MaDanhMuc&lt;/b&gt;" style="text;align=center;verticalAlign=middle;rounded=0;fontFamily=Times New Roman;fontSize=14;fontColor=default;html=1;" vertex="1" parent="Ya3eAvGwwQpFYnClVD_1-53">
          <mxGeometry x="45" y="22.5" width="60" height="25" as="geometry" />
        </mxCell>
        <mxCell id="Ya3eAvGwwQpFYnClVD_1-55" value="TenDanhMuc" style="text;align=center;verticalAlign=middle;rounded=0;fontFamily=Times New Roman;fontSize=14;fontColor=default;html=1;" vertex="1" parent="Ya3eAvGwwQpFYnClVD_1-53">
          <mxGeometry x="45" y="40" width="60" height="30" as="geometry" />
        </mxCell>
        <mxCell id="Ya3eAvGwwQpFYnClVD_1-64" value="SanPham" style="swimlane;fillColor=#e1d5e7;strokeColor=#9673a6;fontFamily=Times New Roman;fontSize=14;align=center;fontColor=default;html=1;" vertex="1" parent="1">
          <mxGeometry x="860" y="850" width="150" height="210" as="geometry" />
        </mxCell>
        <mxCell id="Ya3eAvGwwQpFYnClVD_1-65" value="&lt;b&gt;MaSanPham&lt;/b&gt;" style="text;align=center;verticalAlign=middle;rounded=0;fontFamily=Times New Roman;fontSize=14;fontColor=default;html=1;" vertex="1" parent="Ya3eAvGwwQpFYnClVD_1-64">
          <mxGeometry x="45" y="22.5" width="60" height="25" as="geometry" />
        </mxCell>
        <mxCell id="Ya3eAvGwwQpFYnClVD_1-66" value="TenSanPham" style="text;align=center;verticalAlign=middle;rounded=0;fontFamily=Times New Roman;fontSize=14;fontColor=default;html=1;" vertex="1" parent="Ya3eAvGwwQpFYnClVD_1-64">
          <mxGeometry x="45" y="40" width="60" height="30" as="geometry" />
        </mxCell>
        <mxCell id="Ya3eAvGwwQpFYnClVD_1-67" value="HinhAnh" style="text;align=center;verticalAlign=middle;rounded=0;fontFamily=Times New Roman;fontSize=14;fontColor=default;html=1;" vertex="1" parent="Ya3eAvGwwQpFYnClVD_1-64">
          <mxGeometry x="45" y="60" width="60" height="30" as="geometry" />
        </mxCell>
        <mxCell id="Ya3eAvGwwQpFYnClVD_1-68" value="MoTa" style="text;align=center;verticalAlign=middle;rounded=0;fontFamily=Times New Roman;fontSize=14;fontColor=default;html=1;" vertex="1" parent="Ya3eAvGwwQpFYnClVD_1-64">
          <mxGeometry x="45" y="80" width="60" height="30" as="geometry" />
        </mxCell>
        <mxCell id="Ya3eAvGwwQpFYnClVD_1-69" value="Gia" style="text;align=center;verticalAlign=middle;rounded=0;fontFamily=Times New Roman;fontSize=14;fontColor=default;html=1;" vertex="1" parent="Ya3eAvGwwQpFYnClVD_1-64">
          <mxGeometry x="45" y="100" width="60" height="30" as="geometry" />
        </mxCell>
        <mxCell id="Ya3eAvGwwQpFYnClVD_1-70" value="SoLuong" style="text;align=center;verticalAlign=middle;rounded=0;fontFamily=Times New Roman;fontSize=14;fontColor=default;html=1;" vertex="1" parent="Ya3eAvGwwQpFYnClVD_1-64">
          <mxGeometry x="45" y="120" width="60" height="30" as="geometry" />
        </mxCell>
        <mxCell id="Ya3eAvGwwQpFYnClVD_1-71" value="MaDanhMuc" style="text;align=center;verticalAlign=middle;rounded=0;fontFamily=Times New Roman;fontSize=14;fontColor=default;html=1;" vertex="1" parent="Ya3eAvGwwQpFYnClVD_1-64">
          <mxGeometry x="45" y="140" width="60" height="30" as="geometry" />
        </mxCell>
        <mxCell id="Ya3eAvGwwQpFYnClVD_1-72" value="NgayTao" style="text;align=center;verticalAlign=middle;rounded=0;fontFamily=Times New Roman;fontSize=14;fontColor=default;html=1;" vertex="1" parent="Ya3eAvGwwQpFYnClVD_1-64">
          <mxGeometry x="45" y="160" width="60" height="30" as="geometry" />
        </mxCell>
        <mxCell id="Ya3eAvGwwQpFYnClVD_1-73" value="NgayCapNhat" style="text;align=center;verticalAlign=middle;rounded=0;fontFamily=Times New Roman;fontSize=14;fontColor=default;html=1;" vertex="1" parent="Ya3eAvGwwQpFYnClVD_1-64">
          <mxGeometry x="45" y="180" width="60" height="30" as="geometry" />
        </mxCell>
        <mxCell id="Ya3eAvGwwQpFYnClVD_1-75" value="GioHang" style="swimlane;fillColor=#e1d5e7;strokeColor=#9673a6;fontFamily=Times New Roman;fontSize=14;align=center;fontColor=default;html=1;" vertex="1" parent="1">
          <mxGeometry x="1070" y="720" width="150" height="110" as="geometry" />
        </mxCell>
        <mxCell id="Ya3eAvGwwQpFYnClVD_1-76" value="&lt;b&gt;MaGioHang&lt;/b&gt;" style="text;align=center;verticalAlign=middle;rounded=0;fontFamily=Times New Roman;fontSize=14;fontColor=default;html=1;" vertex="1" parent="Ya3eAvGwwQpFYnClVD_1-75">
          <mxGeometry x="45" y="22.5" width="60" height="25" as="geometry" />
        </mxCell>
        <mxCell id="Ya3eAvGwwQpFYnClVD_1-77" value="UserId" style="text;align=center;verticalAlign=middle;rounded=0;fontFamily=Times New Roman;fontSize=14;fontColor=default;html=1;" vertex="1" parent="Ya3eAvGwwQpFYnClVD_1-75">
          <mxGeometry x="45" y="40" width="60" height="30" as="geometry" />
        </mxCell>
        <mxCell id="Ya3eAvGwwQpFYnClVD_1-78" value="MaSanPham" style="text;align=center;verticalAlign=middle;rounded=0;fontFamily=Times New Roman;fontSize=14;fontColor=default;html=1;" vertex="1" parent="Ya3eAvGwwQpFYnClVD_1-75">
          <mxGeometry x="45" y="60" width="60" height="30" as="geometry" />
        </mxCell>
        <mxCell id="Ya3eAvGwwQpFYnClVD_1-79" value="SoLuong" style="text;align=center;verticalAlign=middle;rounded=0;fontFamily=Times New Roman;fontSize=14;fontColor=default;html=1;" vertex="1" parent="Ya3eAvGwwQpFYnClVD_1-75">
          <mxGeometry x="45" y="80" width="60" height="30" as="geometry" />
        </mxCell>
        <mxCell id="Ya3eAvGwwQpFYnClVD_1-87" value="" style="fontSize=12;html=1;endArrow=ERmany;rounded=0;entryX=0;entryY=0.5;entryDx=0;entryDy=0;" edge="1" parent="1" target="H7oYHcy3-10RAJCXSZ3g-59">
          <mxGeometry width="100" height="100" relative="1" as="geometry">
            <mxPoint x="1010" y="355" as="sourcePoint" />
            <mxPoint x="1230" y="470" as="targetPoint" />
          </mxGeometry>
        </mxCell>
        <mxCell id="Ya3eAvGwwQpFYnClVD_1-88" value="" style="fontSize=12;html=1;endArrow=ERmany;rounded=0;entryX=0.5;entryY=1;entryDx=0;entryDy=0;exitX=0.5;exitY=0;exitDx=0;exitDy=0;" edge="1" parent="1" source="H7oYHcy3-10RAJCXSZ3g-42" target="H7oYHcy3-10RAJCXSZ3g-68">
          <mxGeometry width="100" height="100" relative="1" as="geometry">
            <mxPoint x="1020" y="365" as="sourcePoint" />
            <mxPoint x="1090" y="365" as="targetPoint" />
          </mxGeometry>
        </mxCell>
        <mxCell id="Ya3eAvGwwQpFYnClVD_1-89" value="" style="fontSize=12;html=1;endArrow=ERmany;rounded=0;entryX=1;entryY=0.5;entryDx=0;entryDy=0;" edge="1" parent="1" target="H7oYHcy3-10RAJCXSZ3g-52">
          <mxGeometry width="100" height="100" relative="1" as="geometry">
            <mxPoint x="860" y="335" as="sourcePoint" />
            <mxPoint x="945" y="220" as="targetPoint" />
          </mxGeometry>
        </mxCell>
        <mxCell id="Ya3eAvGwwQpFYnClVD_1-90" value="" style="fontSize=12;html=1;endArrow=ERmany;rounded=0;entryX=0;entryY=0.5;entryDx=0;entryDy=0;" edge="1" parent="1" target="H7oYHcy3-10RAJCXSZ3g-52">
          <mxGeometry width="100" height="100" relative="1" as="geometry">
            <mxPoint x="640" y="335" as="sourcePoint" />
            <mxPoint x="830" y="345" as="targetPoint" />
          </mxGeometry>
        </mxCell>
        <mxCell id="Ya3eAvGwwQpFYnClVD_1-91" value="" style="fontSize=12;html=1;endArrow=ERmany;rounded=0;entryX=0.5;entryY=0;entryDx=0;entryDy=0;exitX=0.5;exitY=1;exitDx=0;exitDy=0;" edge="1" parent="1" source="H7oYHcy3-10RAJCXSZ3g-18" target="H7oYHcy3-10RAJCXSZ3g-7">
          <mxGeometry width="100" height="100" relative="1" as="geometry">
            <mxPoint x="650" y="345" as="sourcePoint" />
            <mxPoint x="700" y="345" as="targetPoint" />
          </mxGeometry>
        </mxCell>
        <mxCell id="Ya3eAvGwwQpFYnClVD_1-92" value="" style="fontSize=12;html=1;endArrow=ERmany;rounded=0;entryX=0.5;entryY=0;entryDx=0;entryDy=0;exitX=0.25;exitY=1;exitDx=0;exitDy=0;edgeStyle=orthogonalEdgeStyle;" edge="1" parent="1" source="Ya3eAvGwwQpFYnClVD_1-15" target="Ya3eAvGwwQpFYnClVD_1-42">
          <mxGeometry width="100" height="100" relative="1" as="geometry">
            <mxPoint x="585" y="420" as="sourcePoint" />
            <mxPoint x="585" y="460" as="targetPoint" />
          </mxGeometry>
        </mxCell>
        <mxCell id="Ya3eAvGwwQpFYnClVD_1-93" value="" style="fontSize=12;html=1;endArrow=ERone;endFill=1;rounded=0;exitX=0.5;exitY=1;exitDx=0;exitDy=0;entryX=0.5;entryY=0;entryDx=0;entryDy=0;" edge="1" parent="1" source="Ya3eAvGwwQpFYnClVD_1-47" target="Ya3eAvGwwQpFYnClVD_1-31">
          <mxGeometry width="100" height="100" relative="1" as="geometry">
            <mxPoint x="330" y="930" as="sourcePoint" />
            <mxPoint x="430" y="830" as="targetPoint" />
          </mxGeometry>
        </mxCell>
        <mxCell id="Ya3eAvGwwQpFYnClVD_1-94" value="" style="fontSize=12;html=1;endArrow=ERmany;rounded=0;exitX=1;exitY=0.5;exitDx=0;exitDy=0;edgeStyle=orthogonalEdgeStyle;" edge="1" parent="1" source="Ya3eAvGwwQpFYnClVD_1-42">
          <mxGeometry width="100" height="100" relative="1" as="geometry">
            <mxPoint x="930" y="680" as="sourcePoint" />
            <mxPoint x="660" y="785" as="targetPoint" />
          </mxGeometry>
        </mxCell>
        <mxCell id="Ya3eAvGwwQpFYnClVD_1-95" value="" style="fontSize=12;html=1;endArrow=ERmany;rounded=0;entryX=0.5;entryY=0;entryDx=0;entryDy=0;exitX=0.5;exitY=1;exitDx=0;exitDy=0;edgeStyle=orthogonalEdgeStyle;" edge="1" parent="1" source="Ya3eAvGwwQpFYnClVD_1-15" target="Ya3eAvGwwQpFYnClVD_1-16">
          <mxGeometry width="100" height="100" relative="1" as="geometry">
            <mxPoint x="930" y="680" as="sourcePoint" />
            <mxPoint x="535" y="730" as="targetPoint" />
          </mxGeometry>
        </mxCell>
        <mxCell id="Ya3eAvGwwQpFYnClVD_1-96" value="" style="fontSize=12;html=1;endArrow=ERmany;rounded=0;entryX=0.5;entryY=1;entryDx=0;entryDy=0;exitX=0.5;exitY=0;exitDx=0;exitDy=0;edgeStyle=orthogonalEdgeStyle;" edge="1" parent="1" source="Ya3eAvGwwQpFYnClVD_1-64" target="Ya3eAvGwwQpFYnClVD_1-19">
          <mxGeometry width="100" height="100" relative="1" as="geometry">
            <mxPoint x="945" y="680" as="sourcePoint" />
            <mxPoint x="945" y="730" as="targetPoint" />
          </mxGeometry>
        </mxCell>
        <mxCell id="Ya3eAvGwwQpFYnClVD_1-97" value="" style="fontSize=12;html=1;endArrow=ERmany;rounded=0;entryX=1;entryY=0.75;entryDx=0;entryDy=0;edgeStyle=orthogonalEdgeStyle;" edge="1" parent="1" target="Ya3eAvGwwQpFYnClVD_1-20">
          <mxGeometry width="100" height="100" relative="1" as="geometry">
            <mxPoint x="860" y="892" as="sourcePoint" />
            <mxPoint x="945" y="820" as="targetPoint" />
          </mxGeometry>
        </mxCell>
        <mxCell id="Ya3eAvGwwQpFYnClVD_1-98" value="" style="fontSize=12;html=1;endArrow=ERmany;rounded=0;entryX=-0.002;entryY=0.104;entryDx=0;entryDy=0;exitX=1.002;exitY=0.125;exitDx=0;exitDy=0;exitPerimeter=0;entryPerimeter=0;" edge="1" parent="1" source="Ya3eAvGwwQpFYnClVD_1-16" target="Ya3eAvGwwQpFYnClVD_1-75">
          <mxGeometry width="100" height="100" relative="1" as="geometry">
            <mxPoint x="1010" y="760" as="sourcePoint" />
            <mxPoint x="945" y="820" as="targetPoint" />
          </mxGeometry>
        </mxCell>
        <mxCell id="Ya3eAvGwwQpFYnClVD_1-99" value="" style="fontSize=12;html=1;endArrow=ERmany;rounded=0;entryX=1;entryY=0.25;entryDx=0;entryDy=0;" edge="1" parent="1" target="Ya3eAvGwwQpFYnClVD_1-64">
          <mxGeometry width="100" height="100" relative="1" as="geometry">
            <mxPoint x="1070" y="903" as="sourcePoint" />
            <mxPoint x="1080" y="741" as="targetPoint" />
          </mxGeometry>
        </mxCell>
      </root>
    </mxGraphModel>
  </diagram>
</mxfile>
